<svg width="48" height="48" viewBox="0 0 48 48" fill="none" xmlns="http://www.w3.org/2000/svg">
<path d="M48 0L43.6271 43.195L23.9706 48L4.36829 43.2018L0 0H48Z" fill="#264DE4"/>
<path d="M39.8833 40.4444L43.6203 3.53235H24V44.3272L39.8833 40.4444Z" fill="#2965F1"/>
<path d="M10.0143 19.5554L10.5528 24.8538H24V19.5554H10.0143Z" fill="#EBEBEB"/>
<path d="M24 8.83087H23.9792H8.932L9.47826 14.1294H24V8.83087Z" fill="#EBEBEB"/>
<path d="M24 38.8287V33.316L23.9737 33.3222L17.2813 31.7288L16.8535 27.503H13.6015H10.8213L11.6632 35.8224L23.9724 38.8355L24 38.8287Z" fill="#EBEBEB"/>
<path d="M31.3787 24.8537L30.6812 31.7254L23.9792 33.3205V38.8329L36.2982 35.8224L36.3886 34.9273L37.8006 20.978L37.9473 19.5552L39.0321 8.83087H23.9792V14.1294H32.4466L31.8999 19.5552H23.9792V24.8537H31.3787Z" fill="white"/>
</svg>
