<svg width="28" height="40" viewBox="0 0 28 40" fill="none" xmlns="http://www.w3.org/2000/svg">
<path d="M7 40C10.864 40 14 37.088 14 33.5V27H7C3.136 27 0 29.912 0 33.5C0 37.088 3.136 40 7 40Z" fill="#0ACF83"/>
<path d="M0 20C0 16.136 3.136 13 7 13H14V27H7C3.136 27 0 23.864 0 20Z" fill="#A259FF"/>
<path d="M0 6.5C0 2.912 3.136 0 7 0H14V13H7C3.136 13 0 10.088 0 6.5Z" fill="#F24E1E"/>
<path d="M14 0H21C24.864 0 28 2.912 28 6.5C28 10.088 24.864 13 21 13H14V0Z" fill="#FF7262"/>
<path d="M28 20C28 23.864 24.864 27 21 27C17.136 27 14 23.864 14 20C14 16.136 17.136 13 21 13C24.864 13 28 16.136 28 20Z" fill="#1ABCFE"/>
</svg>
