<svg width="48" height="48" viewBox="0 0 48 48" fill="none" xmlns="http://www.w3.org/2000/svg">
<path d="M31.5165 17.3375L24.8677 21.8073L18.6959 12.8151L21.8842 7.64466C22.69 6.61331 24.0079 6.59968 24.8138 7.64466L31.5165 17.3375Z" fill="#FFA000"/>
<path d="M24.8706 21.8054L0 38.5076L18.6987 12.8151L24.8706 21.8054Z" fill="#F57F17"/>
<path d="M38.807 10.5014C39.9982 9.68218 41.2245 9.9585 41.5344 11.1222L48 38.2819L26.555 47.5777C25.803 47.8813 23.8086 48 23.8086 48C23.8086 48 21.9948 47.8404 21.2995 47.5641L0 38.5076L38.807 10.5014Z" fill="#FFCA28"/>
<path d="M18.6987 12.8151L0 38.5075L8.3333 0.954483C8.64593 -0.209197 9.55957 -0.3279 10.3843 0.703455L18.6987 12.8151Z" fill="#FFA000"/>
</svg>
