<svg width="48" height="48" viewBox="0 0 48 48" fill="none" xmlns="http://www.w3.org/2000/svg">
<path d="M47.0948 21.8617L26.1375 0.90522C24.9314 -0.30174 22.9739 -0.30174 21.7662 0.90522L17.4143 5.25718L22.9349 10.7778C24.2177 10.3443 25.6889 10.6351 26.7115 11.6578C27.739 12.687 28.0277 14.1707 27.5837 15.4577L32.9041 20.7783C34.1913 20.3349 35.6764 20.6218 36.7045 21.6515C38.1413 23.0878 38.1413 25.4157 36.7045 26.8529C35.2673 28.2903 32.9395 28.2903 31.5016 26.8529C30.4208 25.771 30.1538 24.1838 30.7009 22.8523L25.7393 17.8906L25.7387 30.9478C26.0984 31.1256 26.4269 31.3605 26.7115 31.6434C28.1483 33.0797 28.1483 35.4077 26.7115 36.8461C25.2743 38.2827 22.9454 38.2827 21.5102 36.8461C20.0734 35.4077 20.0734 33.0799 21.5102 31.6436C21.8546 31.2991 22.2638 31.0263 22.7142 30.8409V17.662C22.2631 17.4779 21.8537 17.2049 21.5102 16.8593C20.4216 15.7722 20.1599 14.1748 20.7177 12.8381L15.2757 7.39546L0.905627 21.7648C-0.301876 22.9729 -0.301876 24.9306 0.905627 26.1378L21.8633 47.0946C23.0699 48.3018 25.027 48.3018 26.235 47.0946L47.0947 26.2351C48.3018 25.0275 48.3018 23.0687 47.0947 21.8617" fill="#DE4C36"/>
</svg>
