<svg width="50" height="48" viewBox="0 0 50 48" fill="none" xmlns="http://www.w3.org/2000/svg">
<path d="M24.6075 0C11.0189 0 0 11.017 0 24.6075C0 35.48 7.0508 44.7039 16.8282 47.9577C18.0579 48.1855 18.5096 47.4239 18.5096 46.7739C18.5096 46.1872 18.4866 44.2486 18.4762 42.1925C11.6301 43.681 10.1856 39.2891 10.1856 39.2891C9.06622 36.4448 7.45338 35.6886 7.45338 35.6886C5.22084 34.1613 7.62167 34.1925 7.62167 34.1925C10.0928 34.3662 11.3939 36.7284 11.3939 36.7284C13.5886 40.4905 17.1505 39.4028 18.5547 38.7742C18.7755 37.1835 19.4133 36.0981 20.117 35.4836C14.6514 34.8612 8.90565 32.7513 8.90565 23.3224C8.90565 20.6359 9.86695 18.4407 11.4412 16.7174C11.1857 16.0975 10.3434 13.5948 11.6795 10.2053C11.6795 10.2053 13.7459 9.54388 18.4484 12.7277C20.4111 12.1823 22.5163 11.909 24.6075 11.8997C26.6988 11.909 28.8055 12.1823 30.7721 12.7277C35.469 9.54388 37.5325 10.2053 37.5325 10.2053C38.8718 13.5948 38.0292 16.0975 37.7737 16.7174C39.3514 18.4407 40.3062 20.6357 40.3062 23.3224C40.3062 32.7736 34.5496 34.8549 29.0701 35.464C29.9527 36.2276 30.7391 37.7253 30.7391 40.0209C30.7391 43.3134 30.7106 45.9633 30.7106 46.7739C30.7106 47.4287 31.1535 48.1961 32.401 47.9545C42.173 44.6969 49.2149 35.4763 49.2149 24.6075C49.2149 11.017 38.1975 0 24.6075 0Z" fill="#161614"/>
<path d="M9.21633 42.6219C9.16229 42.7441 8.96969 42.7808 8.79464 42.697C8.61612 42.6167 8.51577 42.45 8.57366 42.3272C8.62674 42.2014 8.81934 42.1663 8.99748 42.2508C9.17638 42.3309 9.27828 42.4992 9.21633 42.6219V42.6219ZM10.4268 43.7019C10.3094 43.8108 10.08 43.7602 9.92423 43.5882C9.76327 43.4167 9.73317 43.1874 9.85224 43.0768C9.97325 42.9682 10.1958 43.0189 10.3571 43.1907C10.5181 43.3642 10.5493 43.5921 10.4266 43.7021L10.4268 43.7019ZM11.2572 45.0837C11.1063 45.1885 10.8597 45.0903 10.7074 44.8715C10.5567 44.6528 10.5567 44.3903 10.7107 44.2851C10.8635 44.18 11.1063 44.2745 11.2607 44.4916C11.4112 44.7142 11.4112 44.9766 11.257 45.0839L11.2572 45.0837ZM12.6615 46.6842C12.5265 46.8328 12.2394 46.7931 12.029 46.5901C11.814 46.3917 11.754 46.1101 11.8893 45.9613C12.0257 45.8123 12.3146 45.8542 12.5265 46.0555C12.7402 46.2535 12.8054 46.5372 12.6616 46.6842H12.6615ZM14.4764 47.2246C14.4171 47.4172 14.1404 47.5048 13.8617 47.423C13.5834 47.3387 13.4012 47.1129 13.4574 46.9181C13.5153 46.7242 13.7932 46.6329 14.074 46.7205C14.3519 46.8045 14.5344 47.0285 14.4766 47.2246H14.4764ZM16.5422 47.4537C16.5491 47.6567 16.3127 47.825 16.0201 47.8287C15.7258 47.8351 15.4878 47.6708 15.4847 47.4713C15.4847 47.2663 15.7158 47.0996 16.0099 47.0947C16.3025 47.0889 16.5422 47.252 16.5422 47.4537V47.4537ZM18.5713 47.3759C18.6064 47.5739 18.403 47.7773 18.1125 47.8314C17.8269 47.8835 17.5625 47.7613 17.526 47.5651C17.4905 47.362 17.6978 47.1588 17.9829 47.1061C18.2739 47.0556 18.5342 47.1746 18.5713 47.3759" fill="#161614"/>
</svg>
