<svg width="44" height="48" viewBox="0 0 44 48" fill="none" xmlns="http://www.w3.org/2000/svg">
<path d="M40.7412 23.6332C40.7412 21.1658 38.7408 19.1654 36.2734 19.1654C36.1146 19.1654 35.9581 19.1739 35.8037 19.1902L41.9402 1.09119H15.8621L21.9901 19.1744C21.8997 19.1687 21.8091 19.1657 21.7185 19.1655C19.2511 19.1655 17.2508 21.1656 17.2508 23.6333C17.2508 25.6278 18.5579 27.3164 20.3619 27.8909C19.4091 29.5413 18.2101 31.0279 16.8489 32.3123C14.9978 34.0584 12.8794 35.3826 10.5882 36.1984C7.86026 34.797 6.57213 31.6804 7.7344 28.9479C7.8657 28.6392 7.99971 28.3265 8.12778 28.0151C10.104 27.5538 11.5768 25.7822 11.5768 23.6653C11.5768 21.1977 9.57645 19.1975 7.10888 19.1975C4.64131 19.1975 2.6411 21.1977 2.6411 23.6653C2.6411 25.1784 3.39384 26.515 4.54471 27.3232C3.4389 29.8409 1.81336 32.476 1.30689 35.53C0.6999 39.19 1.30485 43.0751 4.47039 45.2692C11.8427 50.3788 19.8452 42.1016 28.2828 40.0207C31.3407 39.2668 34.6974 39.3883 37.3915 37.828C39.4147 36.6562 40.7485 34.7142 41.1269 32.534C41.5011 30.3802 40.9559 28.2358 39.7021 26.497C40.3747 25.6944 40.7427 24.6803 40.7412 23.6332" fill="#99425B"/>
<path d="M40.0519 32.3473C39.7233 34.2402 38.5543 35.8934 36.8447 36.8838C35.251 37.8068 33.3412 38.0823 31.3191 38.3738C30.2359 38.5299 29.1158 38.6916 28.0216 38.9614C25.1283 39.6748 22.3259 41.0669 19.6159 42.413C14.1923 45.1069 9.50858 47.4332 5.09216 44.3722C1.85706 42.1302 2.00638 37.9818 2.38326 35.7086C2.73258 33.6024 3.67699 31.6627 4.59011 29.787C4.74567 29.4682 4.89999 29.1488 5.05304 28.8288C5.51333 29.0129 5.99631 29.134 6.48896 29.1891C5.55934 32.257 7.02128 35.5928 10.0895 37.169L10.5096 37.3848L10.9542 37.2265C13.3799 36.3625 15.6152 34.9764 17.5977 33.1058C18.8792 31.8968 19.9811 30.5592 20.8867 29.1299C21.162 29.1714 21.4401 29.1923 21.7185 29.1923C24.5347 29.1923 26.8668 27.087 27.2277 24.3679C28.3804 24.3257 29.6047 24.3253 30.7641 24.3675C31.1247 27.087 33.457 29.1925 36.2733 29.1925C37.4508 29.1925 38.543 28.8234 39.4429 28.1965C40.0676 29.4753 40.3007 30.9141 40.0519 32.3473V32.3473ZM7.10904 20.2887C8.97098 20.2887 10.4856 21.8035 10.4856 23.6655C10.4856 24.3342 10.2894 24.9578 9.95246 25.483C9.39123 26.3584 8.43713 26.9584 7.34102 27.0332C7.26431 27.0383 7.18693 27.0421 7.10904 27.0421C6.69406 27.0421 6.29661 26.9664 5.92908 26.829C5.1889 26.5506 4.56906 26.0227 4.17649 25.3363C3.88499 24.8277 3.73183 24.2516 3.73227 23.6655C3.73227 21.8035 5.24709 20.2887 7.10904 20.2887V20.2887ZM18.3421 23.6333C18.3421 21.9416 19.5926 20.537 21.2175 20.2941C21.3811 20.2695 21.5485 20.2567 21.7187 20.2567C22.8012 20.2567 23.765 20.7695 24.383 21.5641C24.5379 21.7622 24.6701 21.977 24.7773 22.2044C24.9872 22.6515 25.0957 23.1394 25.0953 23.6333C25.0953 23.9032 25.0626 24.1656 25.0026 24.4174C24.6735 25.7949 23.4988 26.848 22.0594 26.9929C21.9474 27.0041 21.8338 27.0099 21.7187 27.0099C21.0692 27.0105 20.4335 26.8225 19.8887 26.4689C18.9591 25.8667 18.3421 24.8209 18.3421 23.6333V23.6333ZM32.4351 19.6179C31.7003 20.3193 31.1715 21.2084 30.906 22.1889C29.6332 22.142 28.3592 22.142 27.0865 22.1889C26.8008 21.129 26.2086 20.194 25.4118 19.4837L28.9059 12.4186L32.4351 19.6179ZM17.3841 2.1827H40.4181L34.9777 18.2281C34.7436 18.2842 34.5135 18.3555 34.2887 18.4415L28.9144 7.47822L23.5249 18.3761C23.2899 18.2954 23.0498 18.2307 22.8061 18.1824L17.3841 2.1827ZM39.6499 23.6335C39.6499 23.9719 39.5993 24.2988 39.5063 24.6075C39.2856 25.3342 38.8273 25.9658 38.2048 26.4009C37.639 26.798 36.9645 27.0107 36.2733 27.0101C34.7142 27.0101 33.399 25.9477 33.0123 24.5089C32.9355 24.2234 32.8966 23.9291 32.8967 23.6335C32.8967 23.1719 32.9899 22.7318 33.1582 22.3307C33.2451 22.1256 33.3521 21.9295 33.4776 21.7454C34.0853 20.8484 35.1106 20.2569 36.2733 20.2569C36.3799 20.2569 36.485 20.2623 36.5893 20.2722C38.3036 20.4319 39.65 21.878 39.65 23.6335H39.6499ZM41.8324 23.6335C41.8324 20.9195 39.8769 18.655 37.3013 18.1713L43.4624 0H14.3401L20.5107 18.208C18.0246 18.7613 16.1597 20.9829 16.1597 23.6333C16.1597 25.6235 17.2115 27.3715 18.7877 28.3538C18.0295 29.4834 17.1305 30.5464 16.1002 31.5185C14.4662 33.0599 12.6459 34.229 10.6834 34.9982C8.70669 33.7565 7.87113 31.4148 8.73883 29.3749L8.80686 29.2151L8.93442 28.9151C11.1056 28.1577 12.668 26.0914 12.668 23.6655C12.668 20.6001 10.1742 18.1063 7.10904 18.1063C4.04384 18.1063 1.54974 20.6001 1.54974 23.6655C1.54974 25.2126 2.1858 26.6137 3.2093 27.6225C3.01841 28.027 2.82463 28.4301 2.62799 28.8317C1.69209 30.7537 0.63152 32.9322 0.230321 35.3514C-0.566294 40.156 0.718767 43.9967 3.84894 46.166C5.7483 47.4823 7.67725 48 9.61827 48C13.2731 48 16.9705 46.1637 20.5867 44.3674C23.191 43.074 25.8841 41.7364 28.5442 41.0803C29.534 40.8362 30.5524 40.6893 31.6306 40.5339C33.769 40.2253 35.9799 39.9065 37.9384 38.7723C40.2087 37.4573 41.7627 35.2514 42.2021 32.7208C42.5793 30.5481 42.1254 28.372 41.0183 26.5264C41.5517 25.6558 41.8335 24.6544 41.8324 23.6333V23.6335Z" fill="white"/>
</svg>
