<svg width="310" height="86" viewBox="0 0 310 86" fill="none" xmlns="http://www.w3.org/2000/svg">
<path d="M130.047 4.48438C135.016 4.48438 137.5 6.51562 137.5 10.5781L135.461 12.5938H134.102C131.961 9.89062 129.938 8.53906 128.031 8.53906C124.859 8.53906 122.148 13.0547 119.898 22.0859C119.898 23.4297 126.891 24.5547 140.875 25.4609C143.141 26.7734 144.273 28.5781 144.273 30.875L146.289 29.5156L146.969 30.1953V34.9297C143.328 36.4609 138.141 39.8438 131.406 45.0781L123.953 47.1172C121.25 46.5234 119.898 45.8438 119.898 45.0781V44.3984L137.5 34.25L138.18 30.875V30.1953C137.898 28.8516 136.094 28.1797 132.766 28.1797L132.086 28.8359H131.406L130.727 28.1797L128.031 28.8359C119.859 28.1172 115.57 26.7656 115.164 24.7812V23.4219C116.82 10.7969 121.555 4.48438 129.367 4.48438H130.047Z" fill="white"/>
<path d="M178.422 2.96094C181.031 2.96094 182.336 4.26562 182.336 6.875L199.914 4.27344V4.92969L200.57 4.27344H203.172L203.828 4.92969L204.484 4.27344H205.141C212.516 4.55469 216.203 5.42188 216.203 6.875L214.258 7.53125L207.742 6.875L205.141 7.53125L201.883 6.875C190.711 8.26562 181.156 10.6562 173.219 14.0469C161.5 27.4219 155.641 35.4531 155.641 38.1406H156.273L165.344 32.1641L167.312 31.5078L167.945 32.1641V34.5078C167.945 35.7578 163.898 38.7734 155.805 43.5547C152.211 43.1797 150.414 42.2422 150.414 40.7422V39.4297L152.383 32.9375C150.789 34.7344 148.984 35.6328 146.969 35.6328C146.094 35.5703 145.656 35.1016 145.656 34.2266V32.9375C145.656 31.7188 146.523 30.6641 148.258 29.7734C150.039 28.6641 154.453 24.7188 161.5 17.9375C153.672 16.6406 149.758 15.3438 149.758 14.0469V13.3906L151.727 10.7891L154.984 11.4453H157.586L160.844 10.7891V11.4453C170.828 9.78906 175.82 7.61719 175.82 4.92969L178.422 2.96094Z" fill="white"/>
<path d="M180.297 21.7812L183.461 22.4375C183.742 29.625 184.375 33.2188 185.359 33.2188L189.719 31.3438L189.883 34.9062C189.883 35.75 188.586 36.8828 185.992 38.3047V37.6719L185.359 38.3047C183.453 38.3047 181.336 37.2422 179.008 35.1172H178.375C178.375 37.1797 176.469 38.875 172.656 40.2031C170.969 39.5781 170.125 38.9453 170.125 38.3047V36.4062L171.391 31.9531L167.734 35.0234H166.469L166.562 31.9297C171.016 27.3984 175.594 24.0156 180.297 21.7812Z" fill="white"/>
<path d="M192.977 25.2266H193.539L194.125 25.7891L194.711 25.2266H195.273L196.422 26.375L195.273 39.7109H195.859C199.094 37.2422 201.992 33.3828 204.555 28.1328H206.875L209.758 31.5781H210.953V32.1641L211.516 31.5781H213.25V33.9219L212.102 35.0703H209.758L205.117 33.9219C200.602 40.6094 197.32 44.0859 195.273 44.3516C192.57 44.3516 191.219 43.5859 191.219 42.0547L192.297 33.6406C189.969 35.6406 188.711 35.3516 188.523 32.7734C190.07 31.1797 191.555 28.6641 192.977 25.2266Z" fill="white"/>
<path d="M265.516 1.36719C271.875 2.17969 275.055 3.89844 275.055 6.52344L274.328 10.9297V13.1328H275.055C289.711 10.6797 299.508 9.45312 304.445 9.45312V10.2031L305.195 9.45312H309.602V11.6562C282.648 14.375 269.172 17.8047 269.172 21.9453C267.219 23.7891 265.859 26.0234 265.094 28.6484L267.719 27.8281L272.125 27.1016L273.578 29.3047C271.938 30.8047 267.859 32.25 261.344 33.6406C256.219 40.5469 251.234 44 246.391 44H245.664L243.461 41.7969V41.0703L250.797 37.3906C257.531 30.1719 262.438 23.7969 265.516 18.2656H264.039L247.867 20.4922C244.789 20.4922 242.094 19.2656 239.781 16.8125V15.3359C250.25 6.02344 258.828 1.36719 265.516 1.36719ZM248.594 13.8594C248.594 14.8438 250.805 15.5781 255.227 16.0625L257.43 15.3359V16.0625L258.156 15.3359H264.039C267.461 15.3359 269.172 12.6406 269.172 7.25L266.969 5.77344L263.289 6.52344V5.77344C259.008 6.88281 254.109 9.57812 248.594 13.8594Z" fill="white"/>
<path d="M277.656 35.5859H279.156C281.844 35.5859 283.594 36.5859 284.406 38.5859C283.594 40.5859 281.844 41.5859 279.156 41.5859L275.406 37.8359L277.656 35.5859Z" fill="white"/>
<path d="M55.485 36.549C57.9402 29.5847 45.0233 28.757 45.0233 28.757C45.0233 28.757 41.1801 30.136 36.0561 32.0667C30.9321 33.9974 33.9212 36.5485 33.9212 36.5485L39.259 39.7893C43.9563 37.1001 49.4004 40.4098 49.4004 40.4098H51.0014L50.6812 38.686C50.5747 38.2031 50.8949 37.7894 51.4289 37.445C53.7767 36.0666 55.485 36.549 55.485 36.549Z" fill="white"/>
<path d="M56.7661 34.6183H58.9009C58.9009 34.6183 61.4632 31.0325 62.2101 30.895C62.9578 30.757 65.733 30.8262 65.733 30.8262C65.733 30.8262 69.0422 27.1029 71.1773 27.0336C73.3122 26.9648 74.2728 26.62 74.2728 26.62L75.3406 25.7927C75.3406 25.7927 75.5543 23.4483 71.0708 22.7585L61.7834 23.5858C61.7834 23.5858 49.0795 26.4131 45.45 28.137C45.5565 28.0677 56.4452 29.1018 56.7661 34.6183Z" fill="white"/>
<path d="M82.814 21.448C82.814 21.448 81.6397 19.931 79.0773 19.0344C79.0773 19.0344 75.3405 19.1032 71.4974 22.0685C71.4974 22.0685 75.5542 22.827 75.981 24.5508C76.3012 25.585 76.1947 25.9298 76.0875 25.9991C76.9431 25.8611 81.4268 24.7582 82.814 21.448Z" fill="white"/>
<path d="M76.1953 25.999H76.0888C76.0888 25.999 76.0888 26.0644 76.1953 25.999Z" fill="white"/>
<path d="M86.8707 19.6552C88.045 18.5518 89.5395 17.6558 89.5395 16.2763C89.5395 16.2763 85.4827 16.3451 84.8422 14.2076C84.8422 14.2076 79.2908 17.1037 80.1448 18.4826C80.1448 18.4826 83.3476 19.8616 83.8816 20.8963C83.7751 20.8275 85.6963 20.7586 86.8707 19.6552Z" fill="white"/>
<path d="M91.3544 10.5532C91.3544 10.5532 88.1515 11.4498 86.9772 10.0015C86.9772 10.0015 85.4827 11.1737 85.4827 13.8629C85.4827 13.8629 86.3369 15.035 87.725 15.3799C89.113 15.7247 90.9278 15.3799 90.9278 15.3799C90.9278 15.3803 93.2763 12.622 91.3544 10.5532Z" fill="white"/>
<path d="M84.2018 5.45062C84.2018 5.45062 84.6285 7.86426 87.2973 9.51879C87.2973 9.51879 88.5781 10.6222 91.6744 10.0017C91.6744 10.0017 93.2754 8.76078 91.6744 6.48516C90.0734 4.20967 87.9377 3.31302 87.9377 3.31302C87.9384 3.31302 88.0451 5.10585 84.2018 5.45062Z" fill="white"/>
<path d="M75.448 3.24399C75.448 3.24399 79.2912 4.96785 83.7748 5.24342C83.7748 5.24342 88.0446 4.07126 86.9777 2.5542C86.9777 2.5542 86.1235 1.38204 82.8143 0.554774C79.505 -0.272492 75.448 0.003079 74.8077 0.554774C74.807 0.624037 76.0884 2.1406 75.448 3.24399Z" fill="white"/>
<path d="M70.7508 6.07122L73.206 4.96784C74.7005 3.79568 74.9142 2.62352 74.2738 1.52013C73.6334 0.347971 72.1389 0.14117 72.1389 0.14117C72.1389 0.14117 69.0435 -0.617351 66.5875 1.3821C64.1324 3.38153 67.3352 5.79517 67.3352 5.79517C67.5489 7.10542 63.9187 8.75996 63.9187 8.75996C67.5481 9.45018 70.7508 6.07122 70.7508 6.07122Z" fill="white"/>
<path d="M46.7312 39.9967C42.0338 38.6177 40.1126 40.4103 40.1126 40.4103C38.1914 40.5484 37.4437 41.5825 37.4437 41.5825C37.4437 41.5825 38.1914 41.4444 38.9383 43.3752C39.6859 45.3746 37.8704 45.9264 37.8704 45.9264C45.877 46.0644 47.7982 44.5474 48.8661 42.8923C49.9332 41.2381 46.7312 39.9967 46.7312 39.9967Z" fill="white"/>
<path d="M36.2692 41.6516C28.5829 41.0999 29.9709 42.6857 24.0993 43.0999C18.2276 43.5136 12.7835 43.5136 12.7835 43.5136C13.3174 45.0994 22.2846 45.7203 22.2846 45.7203C20.4699 46.4789 12.7835 46.8925 12.7835 46.8925C14.5982 48.6164 24.2066 47.8578 24.2066 47.8578C33.9214 47.9959 35.3086 47.0993 36.3766 46.4789C37.4444 45.8584 38.0848 45.0999 38.0848 43.8585C37.9776 42.6171 36.2692 41.6516 36.2692 41.6516Z" fill="white"/>
<path d="M57.2998 43.0997C57.62 40.9622 55.8053 37.7901 54.097 37.5145C52.3888 37.1696 51.6419 38.3418 51.6419 38.3418L52.0685 40.2037L54.2034 43.5134C55.3785 41.8587 57.2998 43.0997 57.2998 43.0997Z" fill="white"/>
<path d="M57.2998 44.7546C57.1933 43.4443 56.6594 43.1687 55.6988 43.1687C54.8446 43.1687 54.418 44.0653 54.418 44.0653V45.0306L55.1656 49.1681C55.1656 49.1681 53.7776 52.1329 56.5536 51.9954C59.3291 51.8573 57.728 49.1681 57.728 49.1681C57.7272 49.1676 57.407 46.0648 57.2998 44.7546Z" fill="white"/>
<path d="M66.0537 40.7552C66.0537 40.7552 66.1602 40.1347 65.4133 39.6518C64.6656 39.1689 59.3279 35.3768 58.1544 35.3076C56.98 35.2388 55.4855 36.0661 55.1653 37.1695C55.1653 37.1695 57.1938 37.9968 57.6204 39.9274L59.0084 38.8933C59.0084 38.8933 60.7167 39.7898 61.357 40.4103C61.9974 41.0308 62.958 41.7892 63.1718 41.7205C63.2775 41.7205 64.0253 40.1347 66.0537 40.7552Z" fill="white"/>
<path d="M69.4698 46.1337C67.9753 45.3063 66.5872 41.2377 66.5872 41.2377C66.5872 41.2377 66.1605 41.0308 64.9862 41.2377C63.8119 41.4445 63.3852 42.4098 63.3852 42.4098C63.3852 42.4098 64.9862 44.7541 66.4807 46.8229C67.9752 48.8916 69.8972 48.9603 71.0708 48.5467C72.1386 48.1336 70.8578 46.8921 69.4698 46.1337Z" fill="white"/>
<path d="M59.4349 35.1009C59.4349 35.1009 62.1037 36.4799 62.9578 37.2384L64.7725 34.3423C64.7725 34.3423 61.7834 33.6526 61.9971 32.2736L59.4349 35.1009Z" fill="white"/>
<path d="M75.448 34.6183C75.448 34.6183 74.5939 33.653 73.2058 33.308C71.8177 32.9631 64.7726 30.8944 63.0644 31.5842C63.0644 31.5842 62.7441 32.2739 63.0644 32.6876C63.3846 33.1012 65.1992 34.2046 68.7223 35.3079C68.7223 35.3079 71.4977 36.4801 72.7792 36.2733C72.6719 36.204 73.7398 34.3426 75.448 34.6183Z" fill="white"/>
<path d="M80.2519 40.8931L77.7968 38.6863L75.4482 35.0318C74.1674 34.6869 73.206 36.6176 73.206 36.6176C73.4197 37.3761 75.7683 40.2033 78.117 41.996C80.5722 43.8579 82.8144 43.9267 83.5613 43.513C84.3082 43.0306 80.2519 40.8931 80.2519 40.8931Z" fill="white"/>
<path d="M74.2698 25.3006C73.9496 25.5762 72.7753 26.266 70 28.7483C70 28.7483 74.3771 29.7137 74.9111 29.9205C74.9111 29.9205 76.6193 28.0586 76.9396 27.3001C76.9396 27.2313 77.0461 27.1621 77.0461 27.0933C77.1526 26.5416 76.0855 25.4383 76.2984 25.0245C76.2984 24.9562 74.5901 25.025 74.2698 25.3006Z" fill="white"/>
<path d="M73.8467 27.3091C73.8467 27.3091 73.42 27.5847 73.8467 28.2745C74.2734 28.9642 74.7008 29.9983 74.7008 29.9983C74.7008 29.9983 80.0385 31.3086 83.3477 31.1017C83.3477 31.1017 84.8422 29.171 85.6963 29.2398C85.6963 29.2398 85.1624 28.8262 83.5614 28.4813C82.0669 28.0676 76.409 27.033 73.8467 27.3091Z" fill="white"/>
<path d="M87.9383 34.3425C87.6181 33.9976 86.4437 29.5845 86.4437 29.5845C85.8033 29.1016 83.6683 31.4464 83.6683 31.4464C83.882 32.5498 85.8032 35.3077 85.8032 35.3077C87.297 35.3077 87.9383 34.3425 87.9383 34.3425Z" fill="white"/>
<path d="M91.4611 36.4111L88.3656 34.5492C87.9389 35.1697 86.3371 35.5833 86.3371 35.5833C87.1912 36.2731 89.4326 37.5827 91.1409 37.997C92.8491 38.4106 95.3043 38.8243 95.9446 37.997C96.585 37.2389 91.4611 36.4111 91.4611 36.4111Z" fill="white"/>
<path d="M49.0798 26.3438C49.0798 26.3438 50.8945 21.3791 50.1476 20.2757C50.1476 20.2757 48.3329 19.4484 46.7311 20.2757C46.7311 20.2757 45.0228 24.3438 44.7026 27.9296C44.7026 27.9296 47.9055 26.4818 49.0798 26.3438Z" fill="white"/>
<path d="M50.3608 19.6552L51.6416 18.8279C51.6416 18.8279 51.8553 20.4829 54.5241 20.4137C57.193 20.3449 56.4453 19.0348 56.4453 19.0348H54.4176C54.4176 19.0348 53.7772 18.345 53.1368 16.4836C52.4963 14.5529 49.9339 15.9319 49.9339 15.9319C49.9339 15.9319 47.3717 17.7246 46.9448 19.7245C47.0513 19.6552 48.1186 18.8967 50.3608 19.6552Z" fill="white"/>
<path d="M41.2867 24.1372C40.2188 23.7924 37.5499 23.7924 37.9775 25.5855C38.4042 27.3782 40.006 29.9297 40.006 29.9297L43.2088 28.7576C43.1016 28.8264 42.248 24.482 41.2867 24.1372Z" fill="white"/>
<path d="M41.3934 23.7235C41.3934 23.7235 41.287 22.8962 41.9274 22.6894C41.9274 22.6894 42.5678 20.5519 41.3934 20.207C40.2191 19.7934 37.9769 20.4826 37.764 24.1377C37.8705 24.1372 38.8311 23.103 41.3934 23.7235Z" fill="white"/>
<path d="M45.5569 22.1376L46.1973 20.4137C46.1973 20.4137 45.3432 20.2069 45.0229 20.4137C44.5963 20.6205 44.3825 21.1722 43.6349 21.1722C42.8873 21.1034 42.3541 20.6893 42.3541 20.6893C42.3541 20.6893 42.888 21.5859 42.3541 22.7581C42.4606 22.6893 44.7026 23.0341 45.5569 22.1376Z" fill="white"/>
<path d="M35.522 31.7222L38.6175 30.55L36.1623 25.1716L32.6394 26.5506L35.522 31.7222Z" fill="white"/>
<path d="M26.5546 25.7921L27.5153 25.1717C27.5153 25.1717 28.3694 25.8614 29.9704 26.0682C31.6786 26.275 32.2126 26.2063 32.2126 26.2063L35.6291 24.8273C35.6291 24.8273 35.2025 24.4824 33.2806 24.0688C31.3594 23.6551 27.6226 22.7585 26.5549 23.0347C25.487 23.3103 23.2457 25.3101 23.2457 25.3101L24.0998 25.655L26.5546 25.7921Z" fill="white"/>
<path d="M20.4696 29.033C23.3522 32.4119 29.9707 35.5148 31.145 35.5148C32.4258 35.5148 32.6395 33.0325 32.6395 33.0325C31.9991 31.2398 23.9927 26.5506 23.9927 26.5506L20.4696 29.033Z" fill="white"/>
<path d="M13.8509 27.4471C14.5986 28.4812 14.4913 29.1021 14.4913 29.1021C14.4913 29.1021 19.2951 28.8953 20.1493 28.4124C20.1493 28.4124 23.4585 26.5505 23.3521 26.2056C23.2456 25.7919 22.3915 24.7573 21.3236 24.6198C20.1493 24.4817 12.2491 24.0681 11.5022 26.2056C11.3957 26.2056 13.1033 26.4817 13.8509 27.4471Z" fill="white"/>
<path d="M14.0644 29.3778C13.3167 26.6198 10.6479 26.6198 10.6479 26.6198C9.15336 26.6886 8.51298 26.9642 8.51298 26.9642C4.2432 27.8608 4.45614 33.1011 3.92294 34.963C3.38902 36.8249 1.78805 39.721 2.2147 39.859C2.74862 39.9971 4.34959 38.4107 5.09725 37.5147C5.84489 36.6182 10.435 33.2397 10.435 33.2397C14.5976 30.7568 14.0644 29.3778 14.0644 29.3778Z" fill="white"/>
<path d="M3.49575 32.7565C2.53513 33.8599 1.04059 37.7212 0.400256 39.3764C-0.240154 41.0314 0.0800518 40.7553 0.0800518 40.7553L1.46808 39.928L2.96186 35.6525L3.49575 32.7565Z" fill="white"/>
<path d="M29.6505 26.8265C29.6505 26.8265 28.156 25.9992 24.4194 26.206L27.3019 28.0679C27.3019 28.0679 29.0102 26.8957 29.6505 26.8265Z" fill="white"/>
<path d="M34.4544 31.998C34.4544 31.998 31.7856 28.2747 30.6113 27.1713C30.6113 27.1713 29.1168 27.4469 28.049 28.4816C28.049 28.4816 32.1058 31.102 32.9601 32.6191L34.4544 31.998Z" fill="white"/>
<path d="M14.3847 30.4121C14.0645 30.6189 13.8508 31.653 15.1323 31.7223C16.4131 31.7911 19.7224 29.1711 19.7224 29.1711C18.9747 29.3092 16.3058 29.378 16.3058 29.378C16.5196 29.6536 14.7049 30.2052 14.3847 30.4121Z" fill="white"/>
</svg>
