<svg width="141" height="35" viewBox="0 0 141 35" fill="none" xmlns="http://www.w3.org/2000/svg">
<path d="M50.5234 9.24219C53.0078 9.24219 54.25 10.2578 54.25 12.2891L53.2305 13.2969H52.5508C51.4805 11.9453 50.4688 11.2695 49.5156 11.2695C47.9297 11.2695 46.5742 13.5273 45.4492 18.043C45.4492 18.7148 48.9453 19.2773 55.9375 19.7305C57.0703 20.3867 57.6367 21.2891 57.6367 22.4375L58.6445 21.7578L58.9844 22.0977V24.4648C57.1641 25.2305 54.5703 26.9219 51.2031 29.5391L47.4766 30.5586C46.125 30.2617 45.4492 29.9219 45.4492 29.5391V29.1992L54.25 24.125L54.5898 22.4375V22.0977C54.4492 21.4258 53.5469 21.0898 51.8828 21.0898L51.543 21.418H51.2031L50.8633 21.0898L49.5156 21.418C45.4297 21.0586 43.2852 20.3828 43.082 19.3906V18.7109C43.9102 12.3984 46.2773 9.24219 50.1836 9.24219H50.5234ZM74.7109 8.48047C76.0156 8.48047 76.668 9.13281 76.668 10.4375L85.457 9.13672V9.46484L85.7852 9.13672H87.0859L87.4141 9.46484L87.7422 9.13672H88.0703C91.7578 9.27734 93.6016 9.71094 93.6016 10.4375L92.6289 10.7656L89.3711 10.4375L88.0703 10.7656L86.4414 10.4375C80.8555 11.1328 76.0781 12.3281 72.1094 14.0234C66.25 20.7109 63.3203 24.7266 63.3203 26.0703H63.6367L68.1719 23.082L69.1562 22.7539L69.4727 23.082V24.2539C69.4727 24.8789 67.4492 26.3867 63.4023 28.7773C61.6055 28.5898 60.707 28.1211 60.707 27.3711V26.7148L61.6914 23.4688C60.8945 24.3672 59.9922 24.8164 58.9844 24.8164C58.5469 24.7852 58.3281 24.5508 58.3281 24.1133V23.4688C58.3281 22.8594 58.7617 22.332 59.6289 21.8867C60.5195 21.332 62.7266 19.3594 66.25 15.9688C62.3359 15.3203 60.3789 14.6719 60.3789 14.0234V13.6953L61.3633 12.3945L62.9922 12.7227H64.293L65.9219 12.3945V12.7227C70.9141 11.8945 73.4102 10.8086 73.4102 9.46484L74.7109 8.48047ZM75.6484 17.8906L77.2305 18.2188C77.3711 21.8125 77.6875 23.6094 78.1797 23.6094L80.3594 22.6719L80.4414 24.4531C80.4414 24.875 79.793 25.4414 78.4961 26.1523V25.8359L78.1797 26.1523C77.2266 26.1523 76.168 25.6211 75.0039 24.5586H74.6875C74.6875 25.5898 73.7344 26.4375 71.8281 27.1016C70.9844 26.7891 70.5625 26.4727 70.5625 26.1523V25.2031L71.1953 22.9766L69.3672 24.5117H68.7344L68.7812 22.9648C71.0078 20.6992 73.2969 19.0078 75.6484 17.8906ZM81.9883 19.6133H82.2695L82.5625 19.8945L82.8555 19.6133H83.1367L83.7109 20.1875L83.1367 26.8555H83.4297C85.0469 25.6211 86.4961 23.6914 87.7773 21.0664H88.9375L90.3789 22.7891H90.9766V23.082L91.2578 22.7891H92.125V23.9609L91.5508 24.5352H90.3789L88.0586 23.9609C85.8008 27.3047 84.1602 29.043 83.1367 29.1758C81.7852 29.1758 81.1094 28.793 81.1094 28.0273L81.6484 23.8203C80.4844 24.8203 79.8555 24.6758 79.7617 23.3867C80.5352 22.5898 81.2773 21.332 81.9883 19.6133ZM118.258 7.68359C121.438 8.08984 123.027 8.94922 123.027 10.2617L122.664 12.4648V13.5664H123.027C130.355 12.3398 135.254 11.7266 137.723 11.7266V12.1016L138.098 11.7266H140.301V12.8281C126.824 14.1875 120.086 15.9023 120.086 17.9727C119.109 18.8945 118.43 20.0117 118.047 21.3242L119.359 20.9141L121.562 20.5508L122.289 21.6523C121.469 22.4023 119.43 23.125 116.172 23.8203C113.609 27.2734 111.117 29 108.695 29H108.332L107.23 27.8984V27.5352L110.898 25.6953C114.266 22.0859 116.719 18.8984 118.258 16.1328H117.52L109.434 17.2461C107.895 17.2461 106.547 16.6328 105.391 15.4062V14.668C110.625 10.0117 114.914 7.68359 118.258 7.68359ZM109.797 13.9297C109.797 14.4219 110.902 14.7891 113.113 15.0312L114.215 14.668V15.0312L114.578 14.668H117.52C119.23 14.668 120.086 13.3203 120.086 10.625L118.984 9.88672L117.145 10.2617V9.88672C115.004 10.4414 112.555 11.7891 109.797 13.9297ZM124.328 24.793H125.078C126.422 24.793 127.297 25.293 127.703 26.293C127.297 27.293 126.422 27.793 125.078 27.793L123.203 25.918L124.328 24.793Z" fill="white"/>
<path d="M20.2289 24.6003C21.124 19.9128 16.4147 19.3557 16.4147 19.3557C16.4147 19.3557 15.0136 20.2838 13.1455 21.5834C11.2773 22.8829 12.3671 24.5999 12.3671 24.5999L14.3132 26.7813C16.0257 24.9712 18.0106 27.1989 18.0106 27.1989H18.5943L18.4775 26.0386C18.4387 25.7136 18.5554 25.4352 18.7501 25.2034C19.6061 24.2756 20.2289 24.6003 20.2289 24.6003Z" fill="white"/>
<path d="M20.696 23.3008H21.4743C21.4743 23.3008 22.4085 20.8873 22.6808 20.7947C22.9534 20.7018 23.9652 20.7484 23.9652 20.7484C23.9652 20.7484 25.1716 18.2424 25.9501 18.1957C26.7284 18.1494 27.0786 17.9173 27.0786 17.9173L27.4679 17.3604C27.4679 17.3604 27.5459 15.7825 25.9112 15.3183L22.5252 15.8751C22.5252 15.8751 17.8936 17.778 16.5703 18.9383C16.6092 18.8917 20.5789 19.5878 20.6959 23.3008H20.696Z" fill="white"/>
<path d="M30.1926 14.4362C30.1926 14.4362 29.7645 13.4151 28.8303 12.8116C28.8303 12.8116 27.4679 12.8579 26.0667 14.8538C26.0667 14.8538 27.5458 15.3643 27.7014 16.5246C27.8182 17.2206 27.7793 17.4528 27.7402 17.4994C28.0522 17.4065 29.6869 16.6642 30.1926 14.4362Z" fill="white"/>
<path d="M27.7795 17.4993H27.7407C27.7407 17.4993 27.7407 17.5442 27.7795 17.4993Z" fill="white"/>
<path d="M31.6716 13.2295C32.0997 12.4868 32.6446 11.8837 32.6446 10.9552C32.6446 10.9552 31.1656 11.0015 30.932 9.56279C30.932 9.56279 28.9081 11.5121 29.2195 12.4402C29.2195 12.4402 30.3871 13.3684 30.5818 14.0648C30.543 14.0185 31.2434 13.9722 31.6716 13.2295V13.2295Z" fill="white"/>
<path d="M33.3063 7.10314C33.3063 7.10314 32.1386 7.70659 31.7105 6.73181C31.7105 6.73181 31.1656 7.52077 31.1656 9.33077C31.1656 9.33077 31.477 10.1197 31.9831 10.3518C32.4891 10.584 33.1507 10.3518 33.1507 10.3518C33.1507 10.3522 34.007 8.49557 33.3063 7.10314Z" fill="white"/>
<path d="M30.6986 3.66868C30.6986 3.66868 30.8542 5.29325 31.8272 6.40688C31.8272 6.40688 32.2941 7.14954 33.423 6.73192C33.423 6.73192 34.0067 5.89668 33.423 4.36501C32.8393 2.83343 32.0606 2.22992 32.0606 2.22992C32.0609 2.22992 32.0997 3.43654 30.6985 3.66859L30.6986 3.66868Z" fill="white"/>
<path d="M27.5071 2.18345C27.5071 2.18345 28.9082 3.34374 30.5429 3.52922C30.5429 3.52922 32.0996 2.74027 31.7106 1.71917C31.7106 1.71917 31.3992 0.93022 30.1927 0.373406C28.9862 -0.183408 27.5071 0.00207238 27.2736 0.373406C27.2734 0.420025 27.7406 1.44079 27.5071 2.18345Z" fill="white"/>
<path d="M25.7946 4.0864L26.6897 3.34374C27.2346 2.55479 27.3125 1.76583 27.079 1.02317C26.8455 0.234211 26.3007 0.0950184 26.3007 0.0950184C26.3007 0.0950184 25.1721 -0.415524 24.2767 0.93026C23.3816 2.27603 24.5493 3.9006 24.5493 3.9006C24.6272 4.7825 23.3037 5.89612 23.3037 5.89612C24.6269 6.3607 25.7946 4.0864 25.7946 4.0864Z" fill="white"/>
<path d="M17.0374 26.9208C15.3248 25.9927 14.6244 27.1993 14.6244 27.1993C13.924 27.2922 13.6514 27.9882 13.6514 27.9882C13.6514 27.9882 13.9239 27.8953 14.1962 29.1948C14.4688 30.5406 13.8069 30.912 13.8069 30.912C16.726 31.0049 17.4264 29.9838 17.8158 28.8698C18.2048 27.7564 17.0374 26.9208 17.0374 26.9208Z" fill="white"/>
<path d="M13.2232 28.0347C10.4209 27.6634 10.9269 28.7308 8.78619 29.0095C6.64548 29.288 4.66066 29.288 4.66066 29.288C4.85532 30.3554 8.1246 30.7733 8.1246 30.7733C7.46299 31.2838 4.66066 31.5623 4.66066 31.5623C5.32227 32.7225 8.82532 32.212 8.82532 32.212C12.3672 32.3049 12.8729 31.7015 13.2623 31.2839C13.6516 30.8662 13.8851 30.3557 13.8851 29.5201C13.846 28.6846 13.2232 28.0347 13.2232 28.0347Z" fill="white"/>
<path d="M20.8906 29.0094C21.0073 27.5707 20.3457 25.4356 19.7229 25.2501C19.1001 25.018 18.8278 25.807 18.8278 25.807L18.9833 27.0602L19.7617 29.2878C20.1901 28.1741 20.8906 29.0094 20.8906 29.0094Z" fill="white"/>
<path d="M20.8905 30.1233C20.8517 29.2414 20.6571 29.0559 20.3068 29.0559C19.9954 29.0559 19.8399 29.6593 19.8399 29.6593V30.3091L20.1125 33.0939C20.1125 33.0939 19.6064 35.0895 20.6185 34.9969C21.6304 34.904 21.0467 33.0939 21.0467 33.0939C21.0464 33.0936 20.9296 31.0052 20.8905 30.1233Z" fill="white"/>
<path d="M24.0821 27.4314C24.0821 27.4314 24.1209 27.0138 23.8486 26.6887C23.576 26.3637 21.63 23.8113 21.2021 23.7647C20.774 23.7184 20.2291 24.2753 20.1123 25.0179C20.1123 25.0179 20.8519 25.5748 21.0074 26.8742L21.5135 26.1782C21.5135 26.1782 22.1363 26.7816 22.3697 27.1992C22.6032 27.6169 22.9535 28.1274 23.0314 28.0811C23.0699 28.0811 23.3425 27.0138 24.0821 27.4314Z" fill="white"/>
<path d="M25.3275 31.0515C24.7826 30.4947 24.2766 27.7561 24.2766 27.7561C24.2766 27.7561 24.121 27.6169 23.6929 27.7561C23.2648 27.8953 23.1092 28.5451 23.1092 28.5451C23.1092 28.5451 23.6929 30.123 24.2378 31.5154C24.7826 32.9078 25.4834 32.9541 25.9112 32.6757C26.3005 32.3976 25.8336 31.562 25.3275 31.0515Z" fill="white"/>
<path d="M21.669 23.6256C21.669 23.6256 22.642 24.5538 22.9534 25.0643L23.615 23.115C23.615 23.115 22.5252 22.6508 22.6031 21.7226L21.669 23.6256Z" fill="white"/>
<path d="M27.5071 23.3008C27.5071 23.3008 27.1957 22.651 26.6896 22.4189C26.1835 22.1867 23.615 20.7943 22.9922 21.2586C22.9922 21.2586 22.8755 21.7228 22.9922 22.0012C23.109 22.2797 23.7706 23.0223 25.055 23.765C25.055 23.765 26.0669 24.5539 26.5341 24.4147C26.495 24.3681 26.8843 23.1152 27.5071 23.3008Z" fill="white"/>
<path d="M29.2585 27.5242L28.3634 26.0389L27.5072 23.5791C27.0402 23.3469 26.6897 24.6464 26.6897 24.6464C26.7676 25.157 27.6238 27.0599 28.4802 28.2665C29.3753 29.5197 30.1928 29.5661 30.4651 29.2876C30.7374 28.9629 29.2585 27.5242 29.2585 27.5242Z" fill="white"/>
<path d="M25.7946 18.706C25.6778 18.8915 25.2497 19.3558 24.2379 21.0266C24.2379 21.0266 25.8337 21.6764 26.0284 21.8156C26.0284 21.8156 26.6512 20.5624 26.7679 20.0518C26.7679 20.0055 26.8068 19.9589 26.8068 19.9126C26.8456 19.5413 26.4565 18.7987 26.5342 18.5202C26.5342 18.4742 25.9113 18.5205 25.7946 18.706Z" fill="white"/>
<path d="M26.9233 18.3811C26.9233 18.3811 26.7677 18.5666 26.9233 19.0309C27.0788 19.4951 27.2347 20.1912 27.2347 20.1912C27.2347 20.1912 29.1807 21.0731 30.3872 20.9338C30.3872 20.9338 30.9321 19.6343 31.2434 19.6806C31.2434 19.6806 31.0488 19.4022 30.4651 19.1701C29.9202 18.8917 27.8574 18.1953 26.9233 18.3811Z" fill="white"/>
<path d="M32.0608 23.1151C31.9441 22.883 31.5159 19.9126 31.5159 19.9126C31.2825 19.5876 30.5041 21.1658 30.5041 21.1658C30.582 21.9085 31.2824 23.7648 31.2824 23.7648C31.827 23.7648 32.0608 23.1151 32.0608 23.1151L32.0608 23.1151Z" fill="white"/>
<path d="M33.3452 24.5075L32.2166 23.2543C32.0611 23.6719 31.4771 23.9503 31.4771 23.9503C31.7885 24.4146 32.6056 25.2961 33.2284 25.5749C33.8512 25.8533 34.7463 26.1317 34.9798 25.5749C35.2133 25.0647 33.3451 24.5075 33.3451 24.5075L33.3452 24.5075Z" fill="white"/>
<path d="M17.8937 17.7314C17.8937 17.7314 18.5553 14.3897 18.283 13.6471C18.283 13.6471 17.6214 13.0902 17.0374 13.6471C17.0374 13.6471 16.4146 16.3853 16.2978 18.7988C16.2978 18.7988 17.4655 17.8243 17.8937 17.7314Z" fill="white"/>
<path d="M18.3607 13.2295L18.8277 12.6726C18.8277 12.6726 18.9056 13.7866 19.8786 13.74C20.8516 13.6937 20.579 12.8119 20.579 12.8119H19.8397C19.8397 12.8119 19.6063 12.3476 19.3728 11.0947C19.1393 9.79519 18.2051 10.7234 18.2051 10.7234C18.2051 10.7234 17.2709 11.93 17.1153 13.2761C17.1541 13.2295 17.5432 12.7189 18.3606 13.2295L18.3607 13.2295Z" fill="white"/>
<path d="M15.0524 16.2462C14.6631 16.0141 13.6901 16.0141 13.846 17.221C14.0015 18.4276 14.5855 20.145 14.5855 20.145L15.7532 19.3561C15.7141 19.4024 15.403 16.4783 15.0525 16.2462L15.0524 16.2462Z" fill="white"/>
<path d="M15.0914 15.9677C15.0914 15.9677 15.0525 15.4109 15.286 15.2717C15.286 15.2717 15.5195 13.833 15.0914 13.6009C14.6632 13.3225 13.8458 13.7864 13.7681 16.2465C13.8069 16.2462 14.1572 15.5501 15.0914 15.9677Z" fill="white"/>
<path d="M16.6093 14.9003L16.8428 13.74C16.8428 13.74 16.5314 13.6008 16.4146 13.74C16.2591 13.8792 16.1811 14.2505 15.9086 14.2505C15.636 14.2042 15.4416 13.9255 15.4416 13.9255C15.4416 13.9255 15.6363 14.5289 15.4416 15.3179C15.4804 15.2716 16.2978 15.5037 16.6093 14.9003Z" fill="white"/>
<path d="M12.9507 21.3515L14.0793 20.5625L13.1842 16.9424L11.8998 17.8706L12.9507 21.3515Z" fill="white"/>
<path d="M9.68138 17.3601L10.0316 16.9425C10.0316 16.9425 10.343 17.4067 10.9267 17.5459C11.5495 17.6851 11.7442 17.6388 11.7442 17.6388L12.9898 16.7107C12.9898 16.7107 12.8342 16.4786 12.1335 16.2001C11.4331 15.9217 10.0707 15.3182 9.68146 15.5041C9.29214 15.6896 8.47498 17.0357 8.47498 17.0357L8.78638 17.2678L9.68138 17.3601Z" fill="white"/>
<path d="M7.46288 19.5414C8.51381 21.8157 10.9268 23.9042 11.355 23.9042C11.8219 23.9042 11.8998 22.2334 11.8998 22.2334C11.6664 21.0268 8.74732 17.8706 8.74732 17.8706L7.46288 19.5414Z" fill="white"/>
<path d="M5.04981 18.474C5.32239 19.17 5.28329 19.588 5.28329 19.588C5.28329 19.588 7.03466 19.4487 7.3461 19.1237C7.3461 19.1237 8.55257 17.8705 8.51379 17.6384C8.47497 17.36 8.16356 16.6636 7.77422 16.571C7.34608 16.4781 4.46582 16.1997 4.19351 17.6384C4.15469 17.6384 4.77725 17.8242 5.04981 18.474Z" fill="white"/>
<path d="M5.12764 19.7735C4.85506 17.9172 3.88204 17.9172 3.88204 17.9172C3.33716 17.9635 3.10369 18.149 3.10369 18.149C1.547 18.7524 1.62463 22.2796 1.43024 23.5328C1.23558 24.786 0.651892 26.7353 0.807443 26.8282C1.0021 26.9211 1.58579 25.8534 1.85837 25.2503C2.13095 24.6468 3.80441 22.3729 3.80441 22.3729C5.32204 20.7017 5.12764 19.7735 5.12764 19.7735Z" fill="white"/>
<path d="M1.27449 22.0477C0.924266 22.7903 0.379382 25.3893 0.145927 26.5033C-0.0875563 27.6173 0.0291855 27.4315 0.0291855 27.4315L0.535239 26.8746L1.07984 23.9969L1.27449 22.0477Z" fill="white"/>
<path d="M10.8101 18.0563C10.8101 18.0563 10.2652 17.4994 8.90289 17.6386L9.95382 18.8918C9.95382 18.8918 10.5766 18.1029 10.8101 18.0563Z" fill="white"/>
<path d="M12.5615 21.5371C12.5615 21.5371 11.5885 19.0311 11.1604 18.2884C11.1604 18.2884 10.6155 18.4739 10.2262 19.1703C10.2262 19.1703 11.7053 20.934 12.0167 21.9551L12.5615 21.5371Z" fill="white"/>
<path d="M5.24441 20.4697C5.12767 20.6089 5.04975 21.3049 5.51699 21.3516C5.98396 21.3979 7.19044 19.6344 7.19044 19.6344C6.91787 19.7273 5.94484 19.7736 5.94484 19.7736C6.02276 19.9591 5.36115 20.3305 5.24441 20.4697Z" fill="white"/>
</svg>
