<svg width="48" height="10" viewBox="0 0 48 10" fill="none" xmlns="http://www.w3.org/2000/svg">
<g clip-path="url(#clip0_3_569)">
<path d="M31.909 0.00408936H40.2697V1.54727H36.9531V9.66572H35.2947V1.54727H31.909V0.00408936Z" fill="black"/>
<path d="M18.1586 0.00408936V1.54727H11.4569V4.02977H16.8464V5.57295H11.4569V8.12255H18.1586V9.66572H9.79858V1.54727H9.79788V0.00408936H18.1586Z" fill="black"/>
<path d="M22.3334 0.00799561H20.1632L27.9365 9.66964H30.1131L26.2259 4.84214L30.1069 0.0153668L27.9365 0.0187207L25.1393 3.49269L22.3334 0.00799561Z" fill="black"/>
<path d="M24.5604 6.9094L23.4736 5.55811L20.157 9.67705H22.3334L24.5604 6.9094Z" fill="black"/>
<path fill-rule="evenodd" clip-rule="evenodd" d="M9.85669 9.66567L2.07291 0H0V9.66163H1.65833V2.06517L7.77341 9.66567H9.85669Z" fill="black"/>
<path d="M40.6433 9.60817C40.5216 9.60817 40.4181 9.56603 40.3315 9.48173C40.2448 9.39743 40.202 9.29537 40.2031 9.17447C40.202 9.05688 40.2448 8.95594 40.3315 8.87164C40.4181 8.78733 40.5216 8.74518 40.6433 8.74518C40.7604 8.74518 40.8628 8.78733 40.9494 8.87164C41.0373 8.95594 41.0811 9.05688 41.0823 9.17447C41.0811 9.25432 41.0609 9.32753 41.0203 9.39297C40.9787 9.45954 40.9259 9.51168 40.8594 9.54939C40.7941 9.58822 40.722 9.60817 40.6433 9.60817Z" fill="black"/>
<path d="M43.4729 5.5365H44.2077V8.36768C44.2066 8.62788 44.1504 8.85044 44.0403 9.03756C43.9291 9.22468 43.7751 9.3675 43.5774 9.46826C43.3808 9.5679 43.1504 9.61885 42.8886 9.61885C42.6492 9.61885 42.4347 9.57566 42.2436 9.49152C42.0526 9.40737 41.9009 9.28115 41.7897 9.11506C41.6773 8.94897 41.6222 8.74193 41.6222 8.49391H42.3583C42.3594 8.60242 42.3841 8.69652 42.4313 8.77513C42.4784 8.85375 42.5436 8.91353 42.6268 8.95561C42.711 8.99769 42.8077 9.01873 42.9166 9.01873C43.0347 9.01873 43.1358 8.99436 43.2178 8.94454C43.2998 8.89582 43.3627 8.82275 43.4066 8.72531C43.4492 8.62899 43.4718 8.50941 43.4729 8.36768V5.5365Z" fill="black"/>
<path d="M47.2315 6.64372C47.2135 6.4721 47.1348 6.33813 46.9978 6.2429C46.8595 6.14658 46.6809 6.09897 46.4617 6.09897C46.3079 6.09897 46.1753 6.12222 46.0652 6.16762C45.9551 6.21412 45.8697 6.27612 45.8112 6.35473C45.7528 6.43335 45.7236 6.52303 45.7213 6.6238C45.7213 6.70794 45.7415 6.78102 45.7809 6.84192C45.8202 6.90392 45.873 6.95596 45.9415 6.99804C46.0089 7.04122 46.0842 7.07664 46.1663 7.10543C46.2494 7.13422 46.3326 7.15858 46.4157 7.17851L46.7988 7.27263C46.9528 7.30805 47.1023 7.35568 47.245 7.41657C47.3876 7.47636 47.5169 7.55276 47.6303 7.64465C47.7439 7.73656 47.8338 7.84727 47.9 7.97683C47.9663 8.10637 48.0001 8.25805 48.0001 8.433C48.0001 8.66883 47.9394 8.87589 47.8168 9.05525C47.6944 9.23351 47.518 9.37303 47.2865 9.47379C47.0561 9.57345 46.7775 9.62437 46.4494 9.62437C46.1326 9.62437 45.8561 9.57566 45.6236 9.47823C45.3899 9.3819 45.2078 9.24016 45.0763 9.05415C44.9449 8.86814 44.8741 8.64115 44.864 8.37431H45.5921C45.6023 8.51382 45.6472 8.63009 45.7236 8.7242C45.8011 8.8172 45.9022 8.88585 46.0259 8.93236C46.1506 8.97775 46.2899 9.001 46.4438 9.001C46.6045 9.001 46.7461 8.97664 46.8685 8.92903C46.9899 8.88142 47.0854 8.815 47.154 8.72863C47.2237 8.64337 47.2585 8.54262 47.2596 8.42747C47.2585 8.32228 47.2269 8.2348 47.1663 8.16615C47.1045 8.09751 47.0191 8.03993 46.9101 7.99343C46.8001 7.94693 46.6719 7.90485 46.5258 7.86831L46.0607 7.75095C45.7247 7.66569 45.4584 7.53615 45.2639 7.36232C45.0685 7.18848 44.9718 6.95818 44.9718 6.66919C44.9718 6.43225 45.037 6.22409 45.1686 6.04582C45.2988 5.86757 45.4775 5.72916 45.7034 5.63061C45.9303 5.53097 46.1865 5.48224 46.4719 5.48224C46.7618 5.48224 47.0157 5.53097 47.2349 5.63061C47.4539 5.72916 47.6259 5.86646 47.7506 6.04139C47.8753 6.21633 47.9405 6.41674 47.9439 6.64372H47.2315Z" fill="black"/>
</g>
<defs>
<clipPath id="clip0_3_569">
<rect width="48" height="9.74619" fill="white"/>
</clipPath>
</defs>
</svg>
