<svg width="48" height="48" viewBox="0 0 48 48" fill="none" xmlns="http://www.w3.org/2000/svg">
<path d="M21.8343 0.512092C23.1459 -0.169158 24.8542 -0.172235 26.1646 0.512092C32.7572 3.89253 39.3519 7.26767 45.9434 10.6502C47.1832 11.2839 48.0125 12.5359 47.9999 13.8323V34.1703C48.0091 35.5203 47.0979 36.8023 45.7899 37.4217C39.2189 40.7835 32.6513 44.1494 26.0815 47.5112C24.7428 48.2058 23.0002 48.1523 21.7034 47.4008C19.7334 46.3644 17.76 45.3332 15.7899 44.2979C15.3873 44.0802 14.9335 43.9068 14.6492 43.5526C14.9005 43.2452 15.3498 43.2069 15.7149 43.0727C16.5372 42.8354 17.2925 42.4546 18.0479 42.085C18.2389 41.9663 18.4721 42.0118 18.6553 42.1179C20.3398 42.9944 22.0095 43.8964 23.6997 44.7645C24.0603 44.9534 24.4254 44.7026 24.7336 44.5467C31.1817 41.2396 37.6378 37.945 44.0848 34.6368C44.3237 34.5326 44.4557 34.3025 44.4363 34.065C44.4408 27.3559 44.4374 20.6457 44.4386 13.9366C44.4659 13.6672 44.2941 13.4194 44.0256 13.3092C37.4775 9.96275 30.9327 6.61121 24.3856 3.26393C24.2722 3.19317 24.1378 3.1552 24.0002 3.15502C23.8625 3.15483 23.728 3.19244 23.6144 3.26291C17.0673 6.61121 10.5237 9.96583 3.97665 13.3121C3.70914 13.4225 3.52961 13.6661 3.56144 13.9366C3.56257 20.6457 3.56144 27.3559 3.56144 34.066C3.55009 34.1819 3.57813 34.2981 3.64179 34.3991C3.70545 34.5 3.80167 34.5809 3.9175 34.6307C5.66461 35.5297 7.41397 36.4225 9.16221 37.3184C10.1471 37.7995 11.3564 38.0853 12.4415 37.7167C13.3991 37.4051 14.0703 36.5184 14.052 35.5957C14.061 28.9258 14.0475 22.2548 14.0588 15.5859C14.0349 15.2898 14.3444 15.0452 14.6616 15.0731C15.5011 15.0679 16.3417 15.0628 17.1811 15.0751C17.5315 15.0679 17.7727 15.3868 17.7293 15.6851C17.7259 22.3972 17.7384 29.1096 17.7237 35.8217C17.7259 37.6106 16.9161 39.5571 15.0927 40.4323C12.8463 41.4883 10.0699 41.2644 7.85066 40.2518C5.92948 39.3817 4.09609 38.3547 2.20901 37.4225C0.897642 36.8066 -0.00906885 35.5195 0.000162145 34.1705V13.8323C-0.0135902 12.5091 0.848661 11.2343 2.12706 10.6098C8.6969 7.24527 15.2656 3.87817 21.8343 0.512092Z" fill="#8CC84B"/>
<path d="M27.5658 14.6004C30.4312 14.433 33.4987 14.5012 36.0772 15.7822C38.0735 16.7638 39.1803 18.8239 39.2155 20.8366C39.1597 21.108 38.847 21.2578 38.5614 21.2392C37.7301 21.2381 36.8985 21.2494 36.0672 21.234C35.7145 21.2463 35.5095 20.9513 35.4653 20.6684C35.2264 19.7054 34.6477 18.7516 33.6488 18.2871C32.1156 17.5905 30.3377 17.6255 28.6658 17.6401C27.4452 17.6989 26.1327 17.7948 25.0987 18.4461C24.3048 18.9395 24.0637 19.9355 24.347 20.7376C24.6141 21.3135 25.3468 21.4994 25.9462 21.6707C29.3994 22.4902 33.0586 22.4087 36.4458 23.4872C37.8482 23.9269 39.22 24.7817 39.7 26.1141C40.3279 27.8999 40.0527 30.0344 38.6526 31.468C37.5172 32.6478 35.8635 33.2899 34.2142 33.6386C32.02 34.0826 29.743 34.0939 27.5147 33.8967C25.4195 33.68 23.2391 33.1805 21.6216 31.885C20.2385 30.7951 19.5629 29.0971 19.63 27.4581C19.646 27.1813 19.9497 26.9883 20.2418 27.0111C21.079 27.0049 21.9162 27.0029 22.7534 27.0121C23.0878 26.9904 23.3357 27.2526 23.3529 27.5386C23.5074 28.4561 23.8873 29.4191 24.769 29.9631C26.4705 30.9593 28.6055 30.891 30.5538 30.9189C32.1679 30.8539 33.9798 30.8343 35.297 29.8662C35.992 29.314 36.1979 28.3902 36.0101 27.5954C35.8066 26.9244 35.0331 26.6117 34.3689 26.4073C30.96 25.4287 27.2599 25.7838 23.884 24.6772C22.5134 24.2377 21.1881 23.4067 20.6616 22.129C19.9269 20.3206 20.2635 18.0839 21.8104 16.6986C23.3186 15.3207 25.4958 14.7901 27.5658 14.6002V14.6004Z" fill="#8CC84B"/>
</svg>
