<svg width="50" height="48" viewBox="0 0 50 48" fill="none" xmlns="http://www.w3.org/2000/svg">
<path d="M25 28.2319C27.4702 28.2319 29.4727 26.3373 29.4727 24.0001C29.4727 21.6629 27.4702 19.7683 25 19.7683C22.5298 19.7683 20.5273 21.6629 20.5273 24.0001C20.5273 26.3373 22.5298 28.2319 25 28.2319Z" fill="#61DAFB"/>
<path d="M25 32.67C38.2548 32.67 49 28.7883 49 24C49 19.2117 38.2548 15.33 25 15.33C11.7452 15.33 1 19.2117 1 24C1 28.7883 11.7452 32.67 25 32.67Z" stroke="#61DAFB" stroke-width="1.62581"/>
<path d="M17.064 28.335C23.6914 39.1957 32.6171 46.0591 37 43.665C41.3829 41.2708 39.5633 30.5257 32.9359 19.665C26.3085 8.80432 17.3829 1.94085 13 4.33501C8.61707 6.72916 10.4366 17.4743 17.064 28.335Z" stroke="#61DAFB" stroke-width="1.62581"/>
<path d="M17.064 19.665C10.4366 30.5256 8.61709 41.2708 13 43.665C17.3829 46.0591 26.3085 39.1956 32.9359 28.335C39.5633 17.4743 41.3829 6.72913 37 4.33498C32.6171 1.94082 23.6915 8.80429 17.064 19.665Z" stroke="#61DAFB" stroke-width="1.62581"/>
</svg>
