<svg width="65" height="48" viewBox="0 0 65 48" fill="none" xmlns="http://www.w3.org/2000/svg">
<path d="M55.1134 27.5933C52.8805 27.605 50.9398 28.1428 49.3148 28.9378C48.7185 27.757 48.1223 26.7048 48.0171 25.9332C47.9002 25.033 47.7599 24.4836 47.9002 23.408C48.0405 22.3325 48.6718 20.801 48.6601 20.6841C48.6484 20.5672 48.5198 20.0177 47.2338 20.006C45.9478 19.9943 44.8372 20.2515 44.7086 20.5905C44.58 20.9296 44.3345 21.7012 44.1708 22.4961C43.9487 23.6652 41.5989 27.8388 40.2544 30.025C39.8219 29.1716 39.4478 28.4234 39.3659 27.8271C39.249 26.927 39.1087 26.3775 39.249 25.3019C39.3893 24.2264 40.0206 22.6949 40.0089 22.578C39.9972 22.4611 39.8686 21.9116 38.5826 21.8999C37.2967 21.8882 36.186 22.1454 36.0574 22.4845C35.9288 22.8235 35.7885 23.6185 35.5197 24.3901C35.2508 25.1616 32.1293 32.1293 31.311 33.9297C30.8901 34.8533 30.5277 35.5898 30.2705 36.0925C30.2705 36.0925 30.2588 36.1276 30.2237 36.186C30.0016 36.6186 29.873 36.8524 29.873 36.8524C29.873 36.8524 29.873 36.8524 29.873 36.8641C29.6976 37.1798 29.5106 37.472 29.4171 37.472C29.3469 37.472 29.2183 36.6303 29.4405 35.4846C29.9081 33.0646 31.0187 29.3002 31.007 29.1716C31.007 29.1014 31.2174 28.4468 30.2822 28.1077C29.3703 27.7687 29.043 28.3298 28.9611 28.3298C28.8793 28.3298 28.8208 28.5286 28.8208 28.5286C28.8208 28.5286 29.8379 24.2965 26.8802 24.2965C25.033 24.2965 22.4844 26.319 21.2218 28.1428C20.4269 28.5754 18.7317 29.4989 16.9196 30.4926C16.2299 30.8784 15.5167 31.2642 14.8504 31.6266C14.8036 31.5799 14.7568 31.5214 14.7101 31.4747C11.1327 27.6518 4.51571 24.9512 4.79629 19.819C4.9015 17.9484 5.54449 13.0383 17.5042 7.07601C27.3478 2.22433 35.1806 3.56877 36.5368 6.54992C38.4774 10.8054 32.3398 18.7083 22.1688 19.854C18.2874 20.2866 16.2533 18.7902 15.7389 18.229C15.2011 17.6445 15.1192 17.6094 14.9205 17.7263C14.5932 17.9017 14.8036 18.4278 14.9205 18.7317C15.2245 19.5267 16.4754 20.9296 18.5914 21.6193C20.4619 22.2273 25.0096 22.5663 30.516 20.4386C36.677 18.0536 41.4936 11.425 40.0791 5.87186C38.6645 0.236899 29.3119 -1.62193 20.4619 1.52289C15.2011 3.39341 9.49598 6.33949 5.39251 10.1741C0.517459 14.7335 -0.254132 18.6966 0.0615192 20.3567C1.19552 26.2489 9.32062 30.0835 12.5707 32.9243C12.407 33.0178 12.255 33.0997 12.1264 33.1698C10.5014 33.9765 4.30527 37.2148 2.76209 40.6402C1.00847 44.5216 3.04267 47.304 4.38711 47.6781C8.56072 48.8355 12.8512 46.7545 15.1543 43.3174C17.4574 39.8803 17.1768 35.4145 16.113 33.3686C16.1013 33.3452 16.0896 33.3218 16.0662 33.2984C16.4871 33.0529 16.9196 32.7957 17.3405 32.5502C18.1705 32.0592 18.9889 31.6033 19.6903 31.2292C19.2929 32.3164 19.0006 33.6141 18.8603 35.4846C18.6849 37.6825 19.5851 40.535 20.7659 41.6573C21.292 42.1483 21.9116 42.16 22.3091 42.16C23.6886 42.16 24.3082 41.0143 24.998 39.6582C25.8397 37.9981 26.5996 36.0691 26.5996 36.0691C26.5996 36.0691 25.6526 41.2832 28.2246 41.2832C29.1599 41.2832 30.1068 40.0674 30.5277 39.4478C30.5277 39.4595 30.5277 39.4595 30.5277 39.4595C30.5277 39.4595 30.5511 39.4244 30.5978 39.3426C30.6914 39.1906 30.7498 39.0971 30.7498 39.0971C30.7498 39.0971 30.7498 39.0854 30.7498 39.0737C31.1239 38.419 31.9657 36.9343 33.2166 34.4675C34.8299 31.2876 36.3848 27.3127 36.3848 27.3127C36.3848 27.3127 36.5251 28.2831 37.0044 29.8964C37.285 30.8434 37.8695 31.8838 38.3371 32.8892C37.963 33.4153 37.7292 33.7076 37.7292 33.7076C37.7292 33.7076 37.7292 33.7076 37.7409 33.7193C37.4369 34.1168 37.1096 34.5493 36.7472 34.9702C35.4729 36.49 33.9531 38.2319 33.7427 38.7346C33.4972 39.3309 33.5556 39.7634 34.0232 40.1142C34.3623 40.3713 34.9702 40.4064 35.5898 40.3713C36.7355 40.2895 37.5422 40.0089 37.9396 39.8336C38.5593 39.6114 39.2841 39.2724 39.9622 38.7697C41.2131 37.8461 41.973 36.5251 41.9028 34.7832C41.8677 33.8245 41.5521 32.8659 41.1663 31.9657C41.2832 31.802 41.3884 31.6383 41.5053 31.4747C43.4811 28.587 45.0126 25.4188 45.0126 25.4188C45.0126 25.4188 45.1529 26.3892 45.6322 28.0025C45.866 28.8209 46.3453 29.7094 46.7662 30.5745C44.9074 32.0826 43.7617 33.8362 43.3525 34.9819C42.616 37.1096 43.1888 38.0683 44.2761 38.2904C44.7671 38.3956 45.4685 38.1618 45.9829 37.9397C46.6376 37.7292 47.4092 37.3668 48.1457 36.829C49.3966 35.9055 50.6008 34.6195 50.5306 32.8776C50.4955 32.0826 50.2851 31.2993 49.9928 30.5394C51.5711 29.8847 53.6053 29.5223 56.2007 29.8263C61.7655 30.481 62.8644 33.9531 62.654 35.4145C62.4435 36.8758 61.2744 37.6708 60.8887 37.9163C60.5029 38.1618 60.3743 38.2436 60.4093 38.419C60.4561 38.6762 60.6431 38.6645 60.9705 38.6177C61.4264 38.5359 63.8932 37.437 63.9984 34.7481C64.1738 31.311 60.9003 27.5583 55.1134 27.5933ZM12.1849 42.0665C10.3377 44.0773 7.76574 44.8372 6.65512 44.1942C5.46266 43.5045 5.93029 40.535 8.1983 38.4073C9.57781 37.1096 11.3548 35.9055 12.5356 35.1689C12.8045 35.0053 13.202 34.7715 13.6813 34.4792C13.7631 34.4324 13.8099 34.409 13.8099 34.409C13.9034 34.3506 13.9969 34.2921 14.0905 34.2337C14.9205 37.2733 14.1255 39.9505 12.1849 42.0665ZM25.6293 32.9243C24.9863 34.4909 23.6418 38.5008 22.8235 38.2787C22.122 38.0916 21.6895 35.052 22.6832 32.0475C23.1859 30.5394 24.2497 28.739 24.8694 28.0376C25.8748 26.9153 26.9854 26.5412 27.2543 26.9971C27.5933 27.5933 26.0267 31.9423 25.6293 32.9243ZM36.7238 38.2319C36.4549 38.3722 36.1977 38.4657 36.0808 38.3956C35.999 38.3488 36.1977 38.1618 36.1977 38.1618C36.1977 38.1618 37.5889 36.6654 38.1384 35.9873C38.454 35.5898 38.8281 35.1222 39.2256 34.5961C39.2256 34.6429 39.2256 34.7013 39.2256 34.7481C39.2256 36.5368 37.4954 37.7409 36.7238 38.2319ZM45.2815 36.2796C45.0827 36.1393 45.1178 35.6717 45.7842 34.2103C46.0414 33.6375 46.6493 32.6788 47.6898 31.7552C47.8067 32.1293 47.8885 32.4918 47.8768 32.8308C47.8651 35.0871 46.2518 35.9289 45.2815 36.2796Z" fill="#9C2560"/>
</svg>
