<svg width="48" height="48" viewBox="0 0 48 48" fill="none" xmlns="http://www.w3.org/2000/svg">
<path d="M47.873 28.753C47.5845 27.9055 46.8287 27.3152 45.8514 27.1736C45.3905 27.1068 44.8628 27.1353 44.2382 27.2602C43.1496 27.478 42.342 27.561 41.7526 27.577C43.9773 23.9337 45.7863 19.779 46.8278 15.8681C48.5118 9.54418 47.6119 6.66326 46.5603 5.36016C43.7773 1.91099 39.7171 0.0580688 34.8187 0.00137268C32.2056 -0.0296188 29.9117 0.470802 28.715 0.830667C27.6008 0.639979 26.4028 0.533514 25.1458 0.513825C22.7895 0.477365 20.7076 0.975598 18.9286 1.99959C17.9438 1.67655 16.3631 1.22116 14.5377 0.930569C10.2446 0.246934 6.7844 0.779622 4.25346 2.51387C1.18874 4.61363 -0.231978 8.26187 0.0307766 13.3572C0.114227 14.975 1.04721 19.8971 2.51623 24.5652C3.36051 27.2483 4.26079 29.4764 5.19208 31.1882C6.51281 33.6156 7.92601 35.045 9.5125 35.5584C10.4017 35.8457 12.0173 36.047 13.7166 34.6742C13.932 34.9273 14.2193 35.1787 14.6007 35.4122C15.085 35.7084 15.6773 35.9505 16.2687 36.094C18.4003 36.6108 20.3969 36.4816 22.1003 35.7571C22.1108 36.051 22.1189 36.3317 22.1257 36.5742C22.1369 36.9674 22.1482 37.353 22.1631 37.7136C22.264 40.1517 22.435 42.0475 22.9417 43.3739C22.9696 43.4468 23.007 43.558 23.0464 43.676C23.2992 44.4267 23.7219 45.6835 24.7974 46.6677C25.911 47.6874 27.258 48 28.4917 48C29.1105 48 29.7008 47.9212 30.2186 47.8137C32.0643 47.4299 34.1605 46.8455 35.6769 44.7512C37.1106 42.7714 37.8075 39.7895 37.9336 35.091C37.9499 34.9581 37.965 34.8312 37.9795 34.7103L38.0095 34.462L38.3473 34.4908L38.4343 34.4965C40.3142 34.5796 42.6128 34.1929 44.0245 33.5569C45.14 33.0548 48.7146 31.2243 47.873 28.753" fill="black"/>
<path d="M44.6587 29.2337C39.0691 30.3521 38.6847 28.5165 38.6847 28.5165C44.5864 20.0225 47.0536 9.24053 44.9247 6.6017C39.1163 -0.596526 29.0618 2.8078 28.894 2.89603L28.8401 2.90551C27.7357 2.6831 26.4999 2.55075 25.1107 2.52869C22.5817 2.48858 20.6631 3.17186 19.2072 4.2427C19.2072 4.2427 1.2711 -2.92435 2.10541 13.2565C2.28283 16.6987 7.1921 39.3026 13.0475 32.4752C15.1877 29.9786 17.2557 27.8677 17.2557 27.8677C18.2827 28.5294 19.5123 28.8671 20.8012 28.7458L20.9014 28.6634C20.8702 28.9733 20.8845 29.2765 20.9414 29.6355C19.4329 31.2702 19.8763 31.5571 16.8608 32.1593C13.8095 32.7693 15.6019 33.8551 16.7723 34.1391C18.1912 34.4831 21.4735 34.9706 23.6913 31.9591L23.603 32.3027C24.1939 32.762 24.6089 35.2894 24.5394 37.5808C24.4698 39.872 24.4234 41.445 24.889 42.6738C25.3549 43.9025 25.8189 46.6671 29.7832 45.8433C33.0954 45.1547 34.812 43.3705 35.0509 40.3943C35.2202 38.2784 35.6038 38.5913 35.6279 36.6995L35.9356 35.8041C36.2902 32.9359 35.992 32.0105 38.0325 32.4409L38.5287 32.4832C40.0304 32.5494 41.9964 32.2488 43.1502 31.7287C45.6346 30.6104 47.1081 28.7431 44.6584 29.2337H44.6587" fill="#336791"/>
<path d="M20.2571 14.7959C19.7533 14.7279 19.2972 14.7908 19.0664 14.9603C18.9367 15.0557 18.8965 15.1662 18.8856 15.2422C18.8566 15.4436 19.0021 15.6664 19.0916 15.7812C19.3446 16.1065 19.7141 16.33 20.0798 16.3792C20.1328 16.3865 20.1856 16.3898 20.2381 16.3898C20.848 16.3898 21.4026 15.9291 21.4515 15.5891C21.5126 15.1632 20.8752 14.8794 20.2571 14.7961V14.7959ZM36.9441 14.8094C36.8959 14.4756 36.2836 14.3804 35.7025 14.4588C35.1221 14.5372 34.5593 14.7914 34.6063 15.1259C34.6439 15.386 35.1283 15.8301 35.7015 15.8301C35.75 15.8301 35.7989 15.827 35.8481 15.8203C36.2308 15.7688 36.5116 15.5331 36.645 15.3973C36.848 15.1902 36.9657 14.9594 36.9441 14.8094" fill="white"/>
<path d="M46.5187 29.1067C46.3056 28.4816 45.6196 28.2805 44.4798 28.5088C41.0958 29.1862 39.8839 28.717 39.486 28.4327C42.1164 24.546 44.2802 19.8477 45.4476 15.4643C46.0006 13.3878 46.306 11.4594 46.331 9.88761C46.3586 8.16248 46.0556 6.89474 45.4309 6.12032C42.912 2.99838 39.215 1.32375 34.7399 1.2778C31.6633 1.24426 29.0639 2.00793 28.56 2.22268C27.4989 1.96673 26.342 1.80958 25.0826 1.78953C22.773 1.75325 20.7766 2.28959 19.1238 3.38286C18.4058 3.12362 16.5504 2.5058 14.2812 2.15122C10.3583 1.53868 7.24098 2.00282 5.0164 3.53143C2.36197 5.35556 1.13653 8.61623 1.37391 13.2227C1.45379 14.7724 2.36422 19.54 3.80092 24.1058C5.69208 30.1152 7.74788 33.5172 9.91082 34.217C10.164 34.2989 10.4559 34.3561 10.7778 34.3561C11.5669 34.3561 12.5342 34.0112 13.5407 32.8376C14.7683 31.4091 16.0382 30.0154 17.3488 28.6581C18.1991 29.1007 19.1332 29.3479 20.0885 29.3727C20.0904 29.3969 20.0929 29.4212 20.0951 29.4453C19.9307 29.6355 19.7696 29.8284 19.6121 30.0241C18.9501 30.8391 18.8124 31.0089 16.6816 31.4344C16.0754 31.5558 14.4656 31.8775 14.4419 32.9721C14.4164 34.168 16.3449 34.6702 16.5647 34.7235C17.3304 34.9094 18.0681 35.0011 18.7716 35.0011C20.4825 35.0011 21.9882 34.4557 23.1914 33.4003C23.1544 37.6637 23.3376 41.8646 23.8654 43.1446C24.2977 44.1925 25.3536 46.7533 28.689 46.7531C29.1784 46.7531 29.7171 46.6979 30.3097 46.5746C33.7907 45.8509 35.3024 44.3586 35.8871 41.0685C36.2001 39.3102 36.737 35.1116 36.9896 32.8594C37.5227 33.0208 38.2089 33.0946 38.9507 33.0944C40.4979 33.0944 42.2833 32.7756 43.4029 32.2715C44.6607 31.7049 46.9304 30.3147 46.5187 29.1067V29.1067ZM38.229 13.8881C38.2175 14.5529 38.1232 15.1565 38.0232 15.7866C37.9155 16.4642 37.8042 17.1648 37.7762 18.0152C37.7486 18.8429 37.8552 19.7034 37.9581 20.5356C38.1664 22.2164 38.3801 23.9468 37.5529 25.6543C37.4155 25.4181 37.2931 25.174 37.1864 24.9234C37.0836 24.6817 36.8603 24.2934 36.5511 23.7559C35.3485 21.6638 32.532 16.7646 33.9738 14.7655C34.4032 14.1705 35.4932 13.5586 38.229 13.8881V13.8881ZM34.9128 2.62411C38.9225 2.70998 42.0944 4.16494 44.34 6.94834C46.0624 9.08329 44.1658 18.7977 38.6752 27.1783C38.62 27.1102 38.5645 27.0423 38.5087 26.9747L38.4391 26.8905C39.858 24.6177 39.5805 22.369 39.3336 20.3753C39.2321 19.5571 39.1362 18.7844 39.1607 18.0584C39.1858 17.2891 39.2907 16.6292 39.3922 15.9911C39.5168 15.2048 39.6437 14.3912 39.6087 13.4321C39.6349 13.3315 39.6454 13.2126 39.6317 13.0715C39.5424 12.1518 38.4598 9.39922 36.2532 6.90787C35.0462 5.54515 33.2861 4.02019 30.8827 2.99164C31.9165 2.78381 33.33 2.59002 34.9128 2.62411V2.62411ZM12.4756 31.9785C11.3667 33.2718 10.601 33.0239 10.3491 32.9426C8.70831 32.4117 6.80437 29.0478 5.12578 23.7137C3.6733 19.0981 2.82451 14.4569 2.75723 13.1554C2.54522 9.03935 3.57387 6.17082 5.81481 4.62926C9.46181 2.12077 15.4578 3.62222 17.8672 4.3837C17.8326 4.41688 17.7965 4.44787 17.7623 4.4816C13.8085 8.35444 13.9023 14.9713 13.9121 15.3758C13.9117 15.5319 13.9253 15.7528 13.9437 16.0567C14.0117 17.1697 14.1384 19.241 13.8001 21.5867C13.4858 23.7665 14.1786 25.9 15.7005 27.4403C15.8566 27.5981 16.0208 27.7482 16.1923 27.8902C15.5149 28.5939 14.0427 30.15 12.4756 31.9785V31.9785ZM16.7005 26.5107C15.474 25.2692 14.9169 23.5425 15.1719 21.7727C15.529 19.2948 15.3973 17.1367 15.3264 15.9773C15.3165 15.815 15.3076 15.6728 15.3026 15.5607C15.8801 15.0639 18.5567 13.6729 20.4656 14.0972C21.3365 14.2906 21.8673 14.8659 22.088 15.8555C23.23 20.9787 22.2391 23.1141 21.4429 24.8301C21.2788 25.1836 21.1238 25.5177 20.9915 25.8634L20.8888 26.1306C20.6291 26.8062 20.3874 27.4345 20.2376 28.0309C18.9336 28.0273 17.6651 27.487 16.7005 26.5105V26.5107ZM16.9007 33.42C16.5199 33.3278 16.1775 33.1675 15.9766 33.0346C16.1444 32.9581 16.443 32.8538 16.961 32.7502C19.4677 32.2498 19.8549 31.8965 20.7003 30.8554C20.8941 30.6166 21.1138 30.346 21.4181 30.0164L21.4185 30.016C21.8716 29.5238 22.0789 29.6073 22.4548 29.7586C22.7595 29.8808 23.0563 30.2512 23.1766 30.6588C23.2335 30.8514 23.2974 31.2167 23.0882 31.5011C21.3223 33.8995 18.7488 33.8687 16.9007 33.42V33.42ZM30.0195 45.261C26.9529 45.8983 25.8671 44.3806 25.1516 42.6456C24.6898 41.5256 24.4627 36.4747 24.6238 30.8968C24.6259 30.8226 24.615 30.7509 24.5939 30.6835C24.5751 30.5503 24.5464 30.4185 24.5082 30.2893C24.2688 29.4777 23.6852 28.7988 22.9851 28.5173C22.7069 28.4056 22.1964 28.2005 21.5829 28.3527C21.7138 27.8299 21.9406 27.2394 22.1866 26.6001L22.2898 26.3312C22.406 26.028 22.5518 25.7139 22.7059 25.3814C23.5391 23.586 24.6802 21.127 23.4418 15.5716C22.9779 13.4908 21.4288 12.4747 19.0806 12.7108C17.6728 12.852 16.3848 13.403 15.7424 13.7189C15.6042 13.7867 15.4779 13.8523 15.3599 13.9161C15.5392 11.8197 16.2166 7.9016 18.7505 5.42265C20.346 3.86213 22.4708 3.09136 25.0597 3.13292C30.1606 3.21386 33.4317 5.75298 35.2778 7.86897C36.8686 9.69218 37.73 11.5289 38.0737 12.5195C35.4885 12.2645 33.7302 12.7594 32.8389 13.9954C30.8998 16.684 33.8997 21.9023 35.3415 24.4102C35.6059 24.8698 35.8341 25.2671 35.9059 25.4359C36.3754 26.5395 36.9832 27.2764 37.427 27.8142C37.5631 27.979 37.695 28.1389 37.7954 28.2785C37.0124 28.4975 35.6059 29.0034 35.7341 31.5321C35.6308 32.8009 34.8957 38.7414 34.5222 40.8403C34.0292 43.6131 32.9773 44.6459 30.0195 45.2611V45.261ZM42.8197 31.053C42.019 31.4134 40.6791 31.6838 39.4063 31.7419C38.0004 31.8057 37.2847 31.5891 37.1163 31.4559C37.0374 29.88 37.642 29.7154 38.282 29.5412C38.3825 29.5138 38.4807 29.487 38.5754 29.4549C38.6342 29.5014 38.6987 29.5475 38.7693 29.5927C39.8993 30.3161 41.9147 30.3941 44.7601 29.8244L44.7913 29.8184C44.4075 30.1664 43.7508 30.6335 42.8197 31.053Z" fill="white"/>
</svg>
