<svg width="81" height="48" viewBox="0 0 81 48" fill="none" xmlns="http://www.w3.org/2000/svg">
<path d="M40.0109 0C29.341 0 22.6727 5.33344 20.005 15.9993C24.0065 10.6659 28.6746 8.6666 34.009 9.99946C37.053 10.7599 39.2284 12.9684 41.637 15.412C45.5595 19.3925 50.0994 23.9995 60.0169 23.9995C70.6858 23.9995 77.3551 18.6661 80.0218 7.99917C76.0212 13.3326 71.3532 15.3329 66.0178 14C62.9748 13.2395 60.7994 11.0311 58.3908 8.58755C54.4683 4.60698 49.9273 0 40.0109 0V0ZM20.005 23.9995C9.33605 23.9995 2.66673 29.3329 0 39.9998C4.00059 34.6664 8.66862 32.6661 14.0041 34C17.047 34.7615 19.2225 36.9689 21.631 39.4115C25.5536 43.392 30.0945 48 40.0109 48C50.6808 48 57.3491 42.6666 60.0169 31.9997C56.0153 37.3331 51.3473 39.3334 46.0128 37.9995C42.9688 37.2401 40.7934 35.0306 38.3849 32.588C34.4623 28.6075 29.9224 23.9995 20.005 23.9995V23.9995Z" fill="#06B6D4"/>
</svg>
