<svg width="48" height="48" viewBox="0 0 48 48" fill="none" xmlns="http://www.w3.org/2000/svg">
<path d="M0 0H48V48H0V0Z" fill="#017ACB"/>
<path d="M23.0475 17.775H25.35V21.75H19.125V39.435L18.96 39.48C18.735 39.54 15.7725 39.54 15.135 39.4725L14.625 39.4275V21.75H8.4V17.775L10.3725 17.7525C11.4525 17.7375 14.2275 17.7375 16.5375 17.7525C18.8475 17.7675 21.7725 17.775 23.0475 17.775ZM40.6201 37.56C39.705 38.5275 38.7225 39.0675 37.0875 39.51C36.375 39.705 36.255 39.7125 34.65 39.705C33.045 39.6975 32.9175 39.6975 32.1375 39.495C30.12 38.9775 28.4925 37.965 27.3825 36.5325C27.0675 36.1275 26.55 35.2875 26.55 35.1825C26.55 35.1525 26.625 35.085 26.7225 35.04C26.82 34.995 27.0225 34.8675 27.1875 34.77C27.3525 34.6725 27.6525 34.4925 27.855 34.3875C28.0575 34.2825 28.6425 33.9375 29.1525 33.63C29.6625 33.3225 30.1275 33.075 30.18 33.075C30.2325 33.075 30.33 33.18 30.405 33.3075C30.855 34.065 31.905 35.0325 32.6475 35.3625C33.105 35.5575 34.1175 35.775 34.605 35.775C35.055 35.775 35.88 35.58 36.3225 35.3775C36.795 35.16 37.035 34.9425 37.32 34.5075C37.515 34.2 37.5375 34.1175 37.53 33.5325C37.53 32.9925 37.5 32.8425 37.35 32.595C36.93 31.905 36.36 31.545 34.05 30.525C31.665 29.4675 30.5925 28.8375 29.7225 27.99C29.0775 27.36 28.95 27.1875 28.545 26.4C28.02 25.3875 27.9525 25.0575 27.945 23.55C27.9375 22.4925 27.96 22.1475 28.0725 21.7875C28.23 21.2475 28.74 20.205 28.9725 19.9425C29.4525 19.38 29.625 19.2075 29.9625 18.93C30.9825 18.09 32.5725 17.535 34.095 17.4825C34.2675 17.4825 34.8375 17.5125 35.37 17.55C36.9 17.6775 37.9425 18.0525 38.9475 18.855C39.705 19.455 40.8526 20.865 40.7401 21.0525C40.6651 21.165 37.6725 23.16 37.4775 23.22C37.3575 23.2575 37.275 23.2125 37.11 23.0175C36.09 21.795 35.6775 21.5325 34.6875 21.4725C33.9825 21.4275 33.6075 21.51 33.135 21.825C32.64 22.155 32.4 22.6575 32.4 23.355C32.4075 24.375 32.7975 24.855 34.2375 25.5675C35.1675 26.025 35.9625 26.4 36.0225 26.4C36.1125 26.4 38.04 27.36 38.5425 27.66C40.8826 29.0325 41.8351 30.4425 42.0826 32.8725C42.2626 34.7025 41.7451 36.375 40.6201 37.56Z" fill="white"/>
</svg>
